<svg width="200" height="200" viewBox="0 0 200 200" fill="none" xmlns="http://www.w3.org/2000/svg">
  <!-- 猫咪身体 -->
  <ellipse cx="100" cy="120" rx="60" ry="50" fill="#9E9E9E" />
  
  <!-- 猫咪头部 -->
  <circle cx="100" cy="80" r="40" fill="#9E9E9E" />
  
  <!-- 猫咪耳朵 -->
  <path d="M70 55L60 30L80 50L70 55Z" fill="#9E9E9E" />
  <path d="M130 55L140 30L120 50L130 55Z" fill="#9E9E9E" />
  
  <!-- 猫咪眼睛 -->
  <ellipse cx="80" cy="75" rx="8" ry="10" fill="white" />
  <ellipse cx="120" cy="75" rx="8" ry="10" fill="white" />
  
  <!-- 猫咪瞳孔 -->
  <circle cx="80" cy="75" r="4" fill="black" />
  <circle cx="120" cy="75" r="4" fill="black" />
  
  <!-- 猫咪鼻子 -->
  <path d="M100 85L95 95H105L100 85Z" fill="#FF9E9E" />
  
  <!-- 猫咪嘴巴 -->
  <path d="M95 95C95 100 105 100 105 95" stroke="black" stroke-width="1" />
  
  <!-- 猫咪胡须 -->
  <line x1="95" y1="90" x2="70" y2="85" stroke="black" stroke-width="1" />
  <line x1="95" y1="95" x2="70" y2="95" stroke="black" stroke-width="1" />
  <line x1="95" y1="100" x2="70" y2="105" stroke="black" stroke-width="1" />
  
  <line x1="105" y1="90" x2="130" y2="85" stroke="black" stroke-width="1" />
  <line x1="105" y1="95" x2="130" y2="95" stroke="black" stroke-width="1" />
  <line x1="105" y1="100" x2="130" y2="105" stroke="black" stroke-width="1" />
  
  <!-- 猫咪前爪 -->
  <ellipse cx="70" cy="150" rx="15" ry="10" fill="#9E9E9E" />
  <ellipse cx="130" cy="150" rx="15" ry="10" fill="#9E9E9E" />
  
  <!-- 猫咪尾巴 -->
  <path d="M160 120C180 100 170 80 160 70" stroke="#9E9E9E" stroke-width="10" stroke-linecap="round" />
</svg> 