<svg width="200" height="200" viewBox="0 0 200 200" fill="none" xmlns="http://www.w3.org/2000/svg">
  <!-- 猫咪身体 -->
  <ellipse cx="100" cy="120" rx="60" ry="50" fill="#9E9E9E" />
  
  <!-- 猫咪头部 -->
  <circle cx="100" cy="80" r="40" fill="#9E9E9E" />
  
  <!-- 猫咪耳朵 (竖起) -->
  <path d="M70 55L60 25L80 45L70 55Z" fill="#9E9E9E" />
  <path d="M130 55L140 25L120 45L130 55Z" fill="#9E9E9E" />
  
  <!-- 猫咪眼睛 (开心) -->
  <path d="M75 70C75 75 85 75 85 70" stroke="black" stroke-width="2" />
  <path d="M115 70C115 75 125 75 125 70" stroke="black" stroke-width="2" />
  
  <!-- 猫咪鼻子 -->
  <path d="M100 85L95 95H105L100 85Z" fill="#FF9E9E" />
  
  <!-- 猫咪嘴巴 (开心) -->
  <path d="M85 100C100 115 115 100 115 100" stroke="black" stroke-width="2" />
  
  <!-- 猫咪胡须 -->
  <line x1="95" y1="90" x2="70" y2="85" stroke="black" stroke-width="1" />
  <line x1="95" y1="95" x2="70" y2="95" stroke="black" stroke-width="1" />
  <line x1="95" y1="100" x2="70" y2="105" stroke="black" stroke-width="1" />
  
  <line x1="105" y1="90" x2="130" y2="85" stroke="black" stroke-width="1" />
  <line x1="105" y1="95" x2="130" y2="95" stroke="black" stroke-width="1" />
  <line x1="105" y1="100" x2="130" y2="105" stroke="black" stroke-width="1" />
  
  <!-- 猫咪前爪 (欢呼) -->
  <ellipse cx="70" cy="140" rx="15" ry="10" fill="#9E9E9E" />
  <ellipse cx="130" cy="140" rx="15" ry="10" fill="#9E9E9E" />
  
  <!-- 猫咪尾巴 (开心摇摆) -->
  <path d="M160 120C190 100 170 70 160 60" stroke="#9E9E9E" stroke-width="10" stroke-linecap="round" />
  
  <!-- 开心符号 -->
  <path d="M60 40L50 30M140 40L150 30" stroke="#FFD700" stroke-width="2" />
  <path d="M70 30L65 20M130 30L135 20" stroke="#FFD700" stroke-width="2" />
  <circle cx="150" cy="50" r="5" fill="#FFD700" />
  <circle cx="50" cy="50" r="5" fill="#FFD700" />
</svg> 